<mxfile host="65bd71144e">
    <diagram id="4gAOcyWOR1eSqCDXJneF" name="Page-1">
        <mxGraphModel dx="2514" dy="2034" grid="1" gridSize="10" guides="1" tooltips="1" connect="1" arrows="1" fold="1" page="1" pageScale="1" pageWidth="850" pageHeight="1100" math="0" shadow="0">
            <root>
                <mxCell id="0"/>
                <mxCell id="1" parent="0"/>
                <mxCell id="64" style="edgeStyle=none;html=1;exitX=0.5;exitY=0;exitDx=0;exitDy=0;entryX=0.5;entryY=1;entryDx=0;entryDy=0;shadow=1;endArrow=none;endFill=0;fontSize=15;fontStyle=1" parent="1" source="2" target="100" edge="1">
                    <mxGeometry relative="1" as="geometry">
                        <mxPoint x="-30" y="59.99999999999977" as="targetPoint"/>
                    </mxGeometry>
                </mxCell>
                <mxCell id="65" style="edgeStyle=none;html=1;exitX=0.5;exitY=0;exitDx=0;exitDy=0;entryX=0.5;entryY=1;entryDx=0;entryDy=0;endArrow=none;endFill=0;shadow=1;fontSize=15;fontStyle=1" parent="1" source="2" target="98" edge="1">
                    <mxGeometry relative="1" as="geometry"/>
                </mxCell>
                <mxCell id="66" style="edgeStyle=none;html=1;exitX=0.5;exitY=0;exitDx=0;exitDy=0;entryX=0.5;entryY=1;entryDx=0;entryDy=0;shadow=1;endArrow=none;endFill=0;fontSize=15;fontStyle=1" parent="1" source="2" target="5" edge="1">
                    <mxGeometry relative="1" as="geometry"/>
                </mxCell>
                <mxCell id="67" style="edgeStyle=none;html=1;exitX=0.5;exitY=0;exitDx=0;exitDy=0;entryX=0.5;entryY=1;entryDx=0;entryDy=0;shadow=1;endArrow=none;endFill=0;fontSize=15;fontStyle=1" parent="1" source="2" target="6" edge="1">
                    <mxGeometry relative="1" as="geometry"/>
                </mxCell>
                <mxCell id="107" style="edgeStyle=orthogonalEdgeStyle;html=1;exitX=0;exitY=0.5;exitDx=0;exitDy=0;entryX=0;entryY=0.5;entryDx=0;entryDy=0;endArrow=none;endFill=0;startArrow=ERmandOne;startFill=0;" parent="1" source="2" target="104" edge="1">
                    <mxGeometry relative="1" as="geometry">
                        <Array as="points">
                            <mxPoint y="171"/>
                            <mxPoint y="550"/>
                        </Array>
                    </mxGeometry>
                </mxCell>
                <mxCell id="2" value="Admin" style="html=1;overflow=block;blockSpacing=1;whiteSpace=wrap;fontSize=15;spacing=9;strokeOpacity=100;rounded=1;absoluteArcSize=1;arcSize=9;strokeWidth=NaN;lucidId=.CLh_E8dGPJD;shadow=1;fontStyle=1" parent="1" vertex="1">
                    <mxGeometry x="39" y="126" width="120" height="90" as="geometry"/>
                </mxCell>
                <mxCell id="92" style="edgeStyle=none;html=1;exitX=0.5;exitY=0;exitDx=0;exitDy=0;endArrow=none;endFill=0;fontSize=15;fontStyle=1" parent="1" source="3" edge="1">
                    <mxGeometry relative="1" as="geometry">
                        <mxPoint x="1260" y="59.99999999999977" as="targetPoint"/>
                    </mxGeometry>
                </mxCell>
                <mxCell id="3" value="User" style="html=1;overflow=block;blockSpacing=1;whiteSpace=wrap;fontSize=15;spacing=9;strokeOpacity=100;rounded=1;absoluteArcSize=1;arcSize=9;strokeWidth=NaN;lucidId=BDLhB7NSPed5;fontStyle=1" parent="1" vertex="1">
                    <mxGeometry x="645" y="100" width="120" height="90" as="geometry"/>
                </mxCell>
                <mxCell id="5" value="&lt;font&gt;Email&lt;/font&gt;" style="ellipse;whiteSpace=wrap;html=1;fontSize=15;fontStyle=1" parent="1" vertex="1">
                    <mxGeometry x="20" width="130" height="57" as="geometry"/>
                </mxCell>
                <mxCell id="6" value="&lt;font&gt;password&lt;/font&gt;" style="ellipse;whiteSpace=wrap;html=1;fontSize=15;fontStyle=1" parent="1" vertex="1">
                    <mxGeometry x="165" y="6" width="120" height="45" as="geometry"/>
                </mxCell>
                <mxCell id="8" value="ID" style="ellipse;whiteSpace=wrap;html=1;fontSize=15;fontStyle=1" parent="1" vertex="1">
                    <mxGeometry x="360" y="14" width="120" height="45" as="geometry"/>
                </mxCell>
                <mxCell id="9" value="Email" style="ellipse;whiteSpace=wrap;html=1;fontSize=15;fontStyle=1" parent="1" vertex="1">
                    <mxGeometry x="780" y="14" width="120" height="45" as="geometry"/>
                </mxCell>
                <mxCell id="10" value="password" style="ellipse;whiteSpace=wrap;html=1;fontSize=15;fontStyle=1" parent="1" vertex="1">
                    <mxGeometry x="920" y="15" width="120" height="45" as="geometry"/>
                </mxCell>
                <mxCell id="76" style="edgeStyle=none;html=1;exitX=0.5;exitY=0;exitDx=0;exitDy=0;entryX=0.5;entryY=1;entryDx=0;entryDy=0;endArrow=none;endFill=0;fontSize=15;fontStyle=1" parent="1" source="11" target="12" edge="1">
                    <mxGeometry relative="1" as="geometry"/>
                </mxCell>
                <mxCell id="77" style="edgeStyle=none;html=1;exitX=0.5;exitY=0;exitDx=0;exitDy=0;entryX=0.5;entryY=1;entryDx=0;entryDy=0;endArrow=none;endFill=0;fontSize=15;fontStyle=1" parent="1" source="11" target="13" edge="1">
                    <mxGeometry relative="1" as="geometry"/>
                </mxCell>
                <mxCell id="11" value="Name" style="ellipse;whiteSpace=wrap;html=1;fontSize=15;fontStyle=1" parent="1" vertex="1">
                    <mxGeometry x="500" y="14" width="120" height="45" as="geometry"/>
                </mxCell>
                <mxCell id="12" value="FName" style="ellipse;whiteSpace=wrap;html=1;fontSize=15;fontStyle=1" parent="1" vertex="1">
                    <mxGeometry x="425" y="-75" width="120" height="45" as="geometry"/>
                </mxCell>
                <mxCell id="13" value="LName" style="ellipse;whiteSpace=wrap;html=1;fontSize=15;fontStyle=1" parent="1" vertex="1">
                    <mxGeometry x="575" y="-75" width="120" height="45" as="geometry"/>
                </mxCell>
                <mxCell id="14" value="UserName" style="ellipse;whiteSpace=wrap;html=1;fontSize=15;fontStyle=1" parent="1" vertex="1">
                    <mxGeometry x="640" y="16" width="120" height="45" as="geometry"/>
                </mxCell>
                <mxCell id="15" value="img" style="ellipse;whiteSpace=wrap;html=1;fontSize=15;fontStyle=1" parent="1" vertex="1">
                    <mxGeometry x="1060" y="16" width="120" height="45" as="geometry"/>
                </mxCell>
                <mxCell id="16" value="gender" style="ellipse;whiteSpace=wrap;html=1;fontSize=15;fontStyle=1" parent="1" vertex="1">
                    <mxGeometry x="1194" y="14" width="120" height="45" as="geometry"/>
                </mxCell>
                <mxCell id="85" style="edgeStyle=none;html=1;exitX=0.5;exitY=1;exitDx=0;exitDy=0;entryX=0.5;entryY=0;entryDx=0;entryDy=0;endArrow=none;endFill=0;fontSize=15;fontStyle=1" parent="1" source="17" target="18" edge="1">
                    <mxGeometry relative="1" as="geometry"/>
                </mxCell>
                <mxCell id="86" style="edgeStyle=none;html=1;exitX=0.5;exitY=1;exitDx=0;exitDy=0;entryX=0.5;entryY=0;entryDx=0;entryDy=0;endArrow=none;endFill=0;fontSize=15;fontStyle=1" parent="1" source="17" target="19" edge="1">
                    <mxGeometry relative="1" as="geometry"/>
                </mxCell>
                <mxCell id="87" style="edgeStyle=none;html=1;exitX=0.5;exitY=1;exitDx=0;exitDy=0;entryX=0.5;entryY=0;entryDx=0;entryDy=0;endArrow=none;endFill=0;fontSize=15;fontStyle=1" parent="1" source="17" target="20" edge="1">
                    <mxGeometry relative="1" as="geometry"/>
                </mxCell>
                <mxCell id="88" style="edgeStyle=none;html=1;exitX=0.5;exitY=1;exitDx=0;exitDy=0;endArrow=none;endFill=0;entryX=0.5;entryY=0;entryDx=0;entryDy=0;fontSize=15;fontStyle=1" parent="1" source="17" target="21" edge="1">
                    <mxGeometry relative="1" as="geometry">
                        <mxPoint x="890" y="800" as="targetPoint"/>
                    </mxGeometry>
                </mxCell>
                <mxCell id="90" style="edgeStyle=none;html=1;exitX=1;exitY=0.5;exitDx=0;exitDy=0;entryX=0;entryY=0.5;entryDx=0;entryDy=0;endArrow=none;endFill=0;fontSize=15;fontStyle=1" parent="1" source="114" target="22" edge="1">
                    <mxGeometry relative="1" as="geometry"/>
                </mxCell>
                <mxCell id="91" style="edgeStyle=none;html=1;exitX=1;exitY=0.5;exitDx=0;exitDy=0;entryX=0;entryY=0.5;entryDx=0;entryDy=0;endArrow=none;endFill=0;fontSize=15;fontStyle=1" parent="1" source="114" target="23" edge="1">
                    <mxGeometry relative="1" as="geometry"/>
                </mxCell>
                <mxCell id="17" value="Product" style="html=1;overflow=block;blockSpacing=1;whiteSpace=wrap;fontSize=15;spacing=9;strokeOpacity=100;rounded=1;absoluteArcSize=1;arcSize=9;strokeWidth=NaN;lucidId=JKLh99pEJACP;fontStyle=1" parent="1" vertex="1">
                    <mxGeometry x="735" y="655" width="120" height="90" as="geometry"/>
                </mxCell>
                <mxCell id="18" value="ID" style="ellipse;whiteSpace=wrap;html=1;fontSize=15;fontStyle=1" parent="1" vertex="1">
                    <mxGeometry x="370" y="824" width="120" height="45" as="geometry"/>
                </mxCell>
                <mxCell id="19" value="Name" style="ellipse;whiteSpace=wrap;html=1;fontSize=15;fontStyle=1" parent="1" vertex="1">
                    <mxGeometry x="500" y="824" width="120" height="45" as="geometry"/>
                </mxCell>
                <mxCell id="20" value="Price" style="ellipse;whiteSpace=wrap;html=1;fontSize=15;fontStyle=1" parent="1" vertex="1">
                    <mxGeometry x="640" y="824" width="120" height="45" as="geometry"/>
                </mxCell>
                <mxCell id="21" value="Quantity" style="ellipse;whiteSpace=wrap;html=1;fontSize=15;fontStyle=1" parent="1" vertex="1">
                    <mxGeometry x="770" y="824" width="120" height="45" as="geometry"/>
                </mxCell>
                <mxCell id="22" value="Discout_Amount" style="ellipse;whiteSpace=wrap;html=1;fontSize=15;fontStyle=1" parent="1" vertex="1">
                    <mxGeometry x="1360" y="660" width="120" height="45" as="geometry"/>
                </mxCell>
                <mxCell id="23" value="&lt;p style=&quot;white-space-collapse: preserve;&quot; dir=&quot;auto&quot;&gt;Discount_Expire&lt;/p&gt;" style="ellipse;whiteSpace=wrap;html=1;fontSize=15;fontStyle=1" parent="1" vertex="1">
                    <mxGeometry x="1360" y="720" width="120" height="45" as="geometry"/>
                </mxCell>
                <mxCell id="81" style="edgeStyle=none;html=1;exitX=0.5;exitY=1;exitDx=0;exitDy=0;entryX=0.5;entryY=0;entryDx=0;entryDy=0;endArrow=none;endFill=0;exitPerimeter=0;fontSize=15;fontStyle=1" parent="1" source="24" target="50" edge="1">
                    <mxGeometry relative="1" as="geometry"/>
                </mxCell>
                <mxCell id="82" style="edgeStyle=none;html=1;exitX=0.5;exitY=1;exitDx=0;exitDy=0;entryX=0.5;entryY=0;entryDx=0;entryDy=0;endArrow=none;endFill=0;fontSize=15;fontStyle=1" parent="1" source="24" target="51" edge="1">
                    <mxGeometry relative="1" as="geometry"/>
                </mxCell>
                <mxCell id="83" style="edgeStyle=none;html=1;exitX=0.5;exitY=1;exitDx=0;exitDy=0;entryX=0.5;entryY=0;entryDx=0;entryDy=0;endArrow=none;endFill=0;fontSize=15;fontStyle=1" parent="1" source="24" target="52" edge="1">
                    <mxGeometry relative="1" as="geometry"/>
                </mxCell>
                <mxCell id="84" style="edgeStyle=none;html=1;exitX=0.5;exitY=1;exitDx=0;exitDy=0;entryX=0.5;entryY=0;entryDx=0;entryDy=0;endArrow=none;endFill=0;fontSize=15;fontStyle=1" parent="1" source="24" target="53" edge="1">
                    <mxGeometry relative="1" as="geometry"/>
                </mxCell>
                <mxCell id="24" value="Order" style="html=1;overflow=block;blockSpacing=1;whiteSpace=wrap;fontSize=15;spacing=9;strokeOpacity=100;rounded=1;absoluteArcSize=1;arcSize=9;strokeWidth=NaN;lucidId=1qPheuwVzVI6;fontStyle=1" parent="1" vertex="1">
                    <mxGeometry x="345" y="306.5" width="120" height="90" as="geometry"/>
                </mxCell>
                <mxCell id="93" style="edgeStyle=none;html=1;exitX=1;exitY=0.5;exitDx=0;exitDy=0;entryX=0;entryY=0.5;entryDx=0;entryDy=0;endArrow=none;endFill=0;fontSize=15;fontStyle=1" parent="1" source="25" target="33" edge="1">
                    <mxGeometry relative="1" as="geometry"/>
                </mxCell>
                <mxCell id="94" style="edgeStyle=none;html=1;exitX=1;exitY=0.5;exitDx=0;exitDy=0;entryX=0;entryY=0.5;entryDx=0;entryDy=0;endArrow=none;endFill=0;fontSize=15;fontStyle=1" parent="1" source="25" target="32" edge="1">
                    <mxGeometry relative="1" as="geometry"/>
                </mxCell>
                <mxCell id="95" style="edgeStyle=none;html=1;exitX=1;exitY=0.5;exitDx=0;exitDy=0;entryX=0;entryY=0.25;entryDx=0;entryDy=0;endArrow=none;endFill=0;fontSize=15;fontStyle=1" parent="1" source="25" target="34" edge="1">
                    <mxGeometry relative="1" as="geometry"/>
                </mxCell>
                <mxCell id="103" value="" style="edgeStyle=none;html=1;fontSize=15;fontStyle=1" parent="1" source="25" target="26" edge="1">
                    <mxGeometry relative="1" as="geometry"/>
                </mxCell>
                <mxCell id="25" value="Cart_Items" style="html=1;overflow=block;blockSpacing=1;whiteSpace=wrap;fontSize=15;spacing=9;strokeOpacity=100;rounded=1;absoluteArcSize=1;arcSize=9;strokeWidth=NaN;lucidId=DvPh5~nxHhg.;fontStyle=1" parent="1" vertex="1">
                    <mxGeometry x="1074" y="314" width="120" height="90" as="geometry"/>
                </mxCell>
                <mxCell id="26" value="Have" style="html=1;overflow=block;blockSpacing=1;whiteSpace=wrap;rhombus;fontSize=15;spacing=3.8;strokeOpacity=100;rounded=1;absoluteArcSize=1;arcSize=9;strokeWidth=NaN;lucidId=vwPhx1Z05qXc;fontStyle=1" parent="1" vertex="1">
                    <mxGeometry x="1074" y="165" width="120" height="90" as="geometry"/>
                </mxCell>
                <mxCell id="27" value="" style="html=1;jettySize=18;whiteSpace=wrap;fontSize=15;strokeOpacity=100;strokeWidth=0.8;rounded=1;arcSize=12;edgeStyle=orthogonalEdgeStyle;startArrow=none;endArrow=ERoneToMany;endSize=10;exitX=0.5;exitY=0.992;exitPerimeter=0;entryX=0.5;entryY=-0.008;entryPerimeter=0;lucidId=QwPh9aA8Iyp7;fontStyle=1" parent="1" source="26" target="25" edge="1">
                    <mxGeometry width="100" height="100" relative="1" as="geometry">
                        <Array as="points"/>
                    </mxGeometry>
                </mxCell>
                <mxCell id="28" value="" style="html=1;jettySize=18;whiteSpace=wrap;fontSize=15;strokeOpacity=100;strokeWidth=0.8;rounded=1;arcSize=12;edgeStyle=orthogonalEdgeStyle;startArrow=none;endArrow=ERone;endSize=16;exitX=0.5;exitY=0.008;exitPerimeter=0;entryX=1.006;entryY=0.508;entryPerimeter=0;lucidId=0wPh.CHUoCsE;fontStyle=1" parent="1" source="26" target="3" edge="1">
                    <mxGeometry width="100" height="100" relative="1" as="geometry">
                        <Array as="points"/>
                    </mxGeometry>
                </mxCell>
                <mxCell id="29" value="Contain" style="html=1;overflow=block;blockSpacing=1;whiteSpace=wrap;rhombus;fontSize=15;spacing=3.8;strokeOpacity=100;rounded=1;absoluteArcSize=1;arcSize=9;strokeWidth=NaN;lucidId=NxPhzVOWo8Bp;fontStyle=1" parent="1" vertex="1">
                    <mxGeometry x="1074" y="505" width="120" height="90" as="geometry"/>
                </mxCell>
                <mxCell id="30" value="" style="html=1;jettySize=18;whiteSpace=wrap;fontSize=15;strokeOpacity=100;strokeWidth=0.8;rounded=1;arcSize=12;edgeStyle=orthogonalEdgeStyle;startArrow=none;endArrow=ERone;endSize=16;exitX=0.5;exitY=0.008;exitPerimeter=0;entryX=0.5;entryY=1.008;entryPerimeter=0;lucidId=ZxPhK.DHnQqs;fontStyle=1" parent="1" source="29" target="25" edge="1">
                    <mxGeometry width="100" height="100" relative="1" as="geometry">
                        <Array as="points"/>
                    </mxGeometry>
                </mxCell>
                <mxCell id="31" value="" style="html=1;jettySize=18;whiteSpace=wrap;fontSize=15;strokeOpacity=100;strokeWidth=0.8;rounded=1;arcSize=12;edgeStyle=orthogonalEdgeStyle;startArrow=none;endArrow=ERoneToMany;endSize=10;exitX=0.012;exitY=0.5;exitPerimeter=0;lucidId=9xPhxnuLL.1a;fontStyle=1;entryX=0.629;entryY=0.036;entryDx=0;entryDy=0;entryPerimeter=0;" parent="1" source="29" target="17" edge="1">
                    <mxGeometry width="100" height="100" relative="1" as="geometry">
                        <Array as="points"/>
                        <mxPoint x="810" y="650" as="targetPoint"/>
                    </mxGeometry>
                </mxCell>
                <mxCell id="32" value="Product_ID" style="ellipse;whiteSpace=wrap;html=1;fontSize=15;fontStyle=1" parent="1" vertex="1">
                    <mxGeometry x="1260" y="335" width="120" height="45" as="geometry"/>
                </mxCell>
                <mxCell id="33" value="User_ID" style="ellipse;whiteSpace=wrap;html=1;fontSize=15;fontStyle=1" parent="1" vertex="1">
                    <mxGeometry x="1260" y="260" width="120" height="45" as="geometry"/>
                </mxCell>
                <mxCell id="34" value="Amount" style="ellipse;whiteSpace=wrap;html=1;fontSize=15;fontStyle=1" parent="1" vertex="1">
                    <mxGeometry x="1260" y="398" width="120" height="45" as="geometry"/>
                </mxCell>
                <mxCell id="61" style="edgeStyle=none;html=1;exitX=0;exitY=0.5;exitDx=0;exitDy=0;entryX=1;entryY=0.5;entryDx=0;entryDy=0;endArrow=none;endFill=0;fontSize=15;fontStyle=1" parent="1" source="35" target="39" edge="1">
                    <mxGeometry relative="1" as="geometry"/>
                </mxCell>
                <mxCell id="62" style="edgeStyle=none;html=1;exitX=0;exitY=0.5;exitDx=0;exitDy=0;entryX=1;entryY=0.5;entryDx=0;entryDy=0;endArrow=none;endFill=0;fontSize=15;fontStyle=1" parent="1" source="35" target="40" edge="1">
                    <mxGeometry relative="1" as="geometry"/>
                </mxCell>
                <mxCell id="35" value="Category" style="html=1;overflow=block;blockSpacing=1;whiteSpace=wrap;fontSize=15;spacing=9;strokeOpacity=100;rounded=1;absoluteArcSize=1;arcSize=9;strokeWidth=NaN;lucidId=7BPhToNi2_AE;fontStyle=1" parent="1" vertex="1">
                    <mxGeometry x="225" y="655" width="120" height="90" as="geometry"/>
                </mxCell>
                <mxCell id="36" value="BelongsTo" style="html=1;overflow=block;blockSpacing=1;whiteSpace=wrap;rhombus;fontSize=15;spacing=3.8;strokeOpacity=100;rounded=1;absoluteArcSize=1;arcSize=9;strokeWidth=NaN;lucidId=jCPhNiygI-5~;fontStyle=1" parent="1" vertex="1">
                    <mxGeometry x="465" y="650" width="120" height="90" as="geometry"/>
                </mxCell>
                <mxCell id="37" value="" style="html=1;jettySize=18;whiteSpace=wrap;fontSize=15;strokeOpacity=100;strokeWidth=0.8;rounded=1;arcSize=12;edgeStyle=orthogonalEdgeStyle;startArrow=none;endArrow=ERmandOne;endSize=10;exitX=0.012;exitY=0.5;exitPerimeter=0;entryX=1.006;entryY=0.44;entryPerimeter=0;lucidId=zCPhhTUNg49B;fontStyle=1" parent="1" source="36" target="35" edge="1">
                    <mxGeometry width="100" height="100" relative="1" as="geometry">
                        <Array as="points"/>
                    </mxGeometry>
                </mxCell>
                <mxCell id="38" value="" style="html=1;jettySize=18;whiteSpace=wrap;fontSize=15;strokeOpacity=100;strokeWidth=0.8;rounded=1;arcSize=12;edgeStyle=orthogonalEdgeStyle;startArrow=none;endArrow=ERoneToMany;endSize=10;exitX=0.988;exitY=0.5;exitPerimeter=0;entryX=-0.006;entryY=0.44;entryPerimeter=0;lucidId=CCPhY9WIk-Xc;fontStyle=1" parent="1" source="36" target="17" edge="1">
                    <mxGeometry width="100" height="100" relative="1" as="geometry">
                        <Array as="points"/>
                    </mxGeometry>
                </mxCell>
                <mxCell id="39" value="ID" style="ellipse;whiteSpace=wrap;html=1;fontSize=15;fontStyle=1" parent="1" vertex="1">
                    <mxGeometry x="45" y="640" width="120" height="45" as="geometry"/>
                </mxCell>
                <mxCell id="40" value="Name" style="ellipse;whiteSpace=wrap;html=1;fontSize=15;fontStyle=1" parent="1" vertex="1">
                    <mxGeometry x="45" y="704" width="120" height="45" as="geometry"/>
                </mxCell>
                <mxCell id="41" value="Mange" style="html=1;overflow=block;blockSpacing=1;whiteSpace=wrap;rhombus;fontSize=15;spacing=3.8;strokeOpacity=100;rounded=1;absoluteArcSize=1;arcSize=9;strokeWidth=NaN;lucidId=4GPhMjMSU11j;shadow=1;fontStyle=1" parent="1" vertex="1">
                    <mxGeometry x="39" y="286" width="120" height="90" as="geometry"/>
                </mxCell>
                <mxCell id="42" value="" style="html=1;jettySize=18;whiteSpace=wrap;fontSize=15;strokeOpacity=100;strokeWidth=0.8;rounded=1;arcSize=12;edgeStyle=orthogonalEdgeStyle;startArrow=none;endArrow=ERoneToMany;endSize=10;exitX=0.988;exitY=0.5;exitPerimeter=0;entryX=-0.006;entryY=0.269;entryPerimeter=0;lucidId=zNPhVDh9xNup;shadow=1;fontStyle=1" parent="1" source="41" target="24" edge="1">
                    <mxGeometry width="100" height="100" relative="1" as="geometry">
                        <Array as="points"/>
                    </mxGeometry>
                </mxCell>
                <mxCell id="43" value="" style="html=1;jettySize=18;whiteSpace=wrap;fontSize=15;strokeOpacity=100;strokeWidth=0.8;rounded=1;arcSize=12;edgeStyle=orthogonalEdgeStyle;startArrow=none;endArrow=ERmandOne;endSize=10;exitX=0.5;exitY=0.008;exitPerimeter=0;entryX=0.5;entryY=1.008;entryPerimeter=0;lucidId=fOPhh4UKueco;shadow=1;fontStyle=1" parent="1" source="41" target="2" edge="1">
                    <mxGeometry width="100" height="100" relative="1" as="geometry">
                        <Array as="points"/>
                    </mxGeometry>
                </mxCell>
                <mxCell id="44" value="Make" style="html=1;overflow=block;blockSpacing=1;whiteSpace=wrap;rhombus;fontSize=15;spacing=3.8;strokeOpacity=100;rounded=1;absoluteArcSize=1;arcSize=9;strokeWidth=NaN;lucidId=IQPhN4m3Filq;fontStyle=1" parent="1" vertex="1">
                    <mxGeometry x="345" y="100" width="120" height="90" as="geometry"/>
                </mxCell>
                <mxCell id="45" value="" style="html=1;jettySize=18;whiteSpace=wrap;fontSize=15;strokeOpacity=100;strokeWidth=0.8;rounded=1;arcSize=12;edgeStyle=orthogonalEdgeStyle;startArrow=none;endArrow=ERmandOne;endSize=10;exitX=0.988;exitY=0.5;exitPerimeter=0;entryX=-0.006;entryY=0.5;entryPerimeter=0;lucidId=RSPhLkov_YNU;fontStyle=1" parent="1" source="44" target="3" edge="1">
                    <mxGeometry width="100" height="100" relative="1" as="geometry">
                        <Array as="points"/>
                    </mxGeometry>
                </mxCell>
                <mxCell id="46" value="" style="html=1;jettySize=18;whiteSpace=wrap;fontSize=15;strokeOpacity=100;strokeWidth=0.8;rounded=1;arcSize=12;edgeStyle=orthogonalEdgeStyle;startArrow=none;endArrow=ERoneToMany;endSize=10;exitX=0.5;exitY=0.992;exitPerimeter=0;entryX=0.5;entryY=-0.008;entryPerimeter=0;lucidId=ZSPhI8VDls3J;fontStyle=1" parent="1" source="44" target="24" edge="1">
                    <mxGeometry width="100" height="100" relative="1" as="geometry">
                        <Array as="points"/>
                    </mxGeometry>
                </mxCell>
                <mxCell id="47" value="Have" style="html=1;overflow=block;blockSpacing=1;whiteSpace=wrap;rhombus;fontSize=15;spacing=3.8;strokeOpacity=100;rounded=1;absoluteArcSize=1;arcSize=9;strokeWidth=NaN;lucidId=HTPhzsrNwYps;fontStyle=1" parent="1" vertex="1">
                    <mxGeometry x="532" y="286" width="120" height="90" as="geometry"/>
                </mxCell>
                <mxCell id="48" value="" style="html=1;jettySize=18;whiteSpace=wrap;fontSize=15;strokeOpacity=100;strokeWidth=0.8;rounded=1;arcSize=12;edgeStyle=orthogonalEdgeStyle;startArrow=none;endArrow=ERmandOne;endSize=10;exitX=0.012;exitY=0.5;exitPerimeter=0;entryX=1.006;entryY=0.269;entryPerimeter=0;lucidId=STPhR8GwQyPY;fontStyle=1" parent="1" source="47" target="24" edge="1">
                    <mxGeometry width="100" height="100" relative="1" as="geometry">
                        <Array as="points"/>
                    </mxGeometry>
                </mxCell>
                <mxCell id="49" value="" style="html=1;jettySize=18;whiteSpace=wrap;fontSize=15;strokeOpacity=100;strokeWidth=0.8;rounded=1;arcSize=12;edgeStyle=orthogonalEdgeStyle;startArrow=none;endArrow=ERoneToMany;endSize=10;exitX=0.988;exitY=0.5;exitPerimeter=0;entryX=-0.006;entryY=0.5;entryPerimeter=0;lucidId=-TPh2.miaBgW;fontStyle=1" parent="1" source="47" target="54" edge="1">
                    <mxGeometry width="100" height="100" relative="1" as="geometry">
                        <Array as="points"/>
                    </mxGeometry>
                </mxCell>
                <mxCell id="50" value="ID" style="ellipse;whiteSpace=wrap;html=1;fontSize=15;fontStyle=1" parent="1" vertex="1">
                    <mxGeometry x="130" y="460" width="120" height="45" as="geometry"/>
                </mxCell>
                <mxCell id="51" value="Price" style="ellipse;whiteSpace=wrap;html=1;fontSize=15;fontStyle=1;dashed=1;" parent="1" vertex="1">
                    <mxGeometry x="280" y="460" width="120" height="45" as="geometry"/>
                </mxCell>
                <mxCell id="52" value="Date" style="ellipse;whiteSpace=wrap;html=1;fontSize=15;fontStyle=1" parent="1" vertex="1">
                    <mxGeometry x="422" y="460" width="120" height="45" as="geometry"/>
                </mxCell>
                <mxCell id="53" value="Location" style="ellipse;whiteSpace=wrap;html=1;fontSize=15;fontStyle=1" parent="1" vertex="1">
                    <mxGeometry x="565" y="460" width="120" height="45" as="geometry"/>
                </mxCell>
                <mxCell id="78" style="edgeStyle=none;html=1;exitX=1;exitY=0.5;exitDx=0;exitDy=0;entryX=0;entryY=0.5;entryDx=0;entryDy=0;endArrow=none;endFill=0;fontSize=15;fontStyle=1" parent="1" source="54" target="58" edge="1">
                    <mxGeometry relative="1" as="geometry"/>
                </mxCell>
                <mxCell id="79" style="edgeStyle=none;html=1;exitX=1;exitY=0.5;exitDx=0;exitDy=0;entryX=0;entryY=0.5;entryDx=0;entryDy=0;endArrow=none;endFill=0;fontSize=15;fontStyle=1" parent="1" source="54" target="60" edge="1">
                    <mxGeometry relative="1" as="geometry"/>
                </mxCell>
                <mxCell id="80" style="edgeStyle=none;html=1;exitX=1;exitY=0.5;exitDx=0;exitDy=0;entryX=0;entryY=0.5;entryDx=0;entryDy=0;endArrow=none;endFill=0;fontSize=15;fontStyle=1" parent="1" source="54" target="59" edge="1">
                    <mxGeometry relative="1" as="geometry"/>
                </mxCell>
                <mxCell id="54" value="Order_Items" style="html=1;overflow=block;blockSpacing=1;whiteSpace=wrap;fontSize=15;spacing=9;strokeOpacity=100;rounded=1;absoluteArcSize=1;arcSize=9;strokeWidth=NaN;lucidId=CjQh_gPB7-VC;fontStyle=1" parent="1" vertex="1">
                    <mxGeometry x="719" y="286" width="120" height="90" as="geometry"/>
                </mxCell>
                <mxCell id="55" value="Have" style="html=1;overflow=block;blockSpacing=1;whiteSpace=wrap;rhombus;fontSize=15;spacing=3.8;strokeOpacity=100;rounded=1;absoluteArcSize=1;arcSize=9;strokeWidth=NaN;lucidId=AkQhpRh1xMId;fontStyle=1" parent="1" vertex="1">
                    <mxGeometry x="719" y="422" width="120" height="90" as="geometry"/>
                </mxCell>
                <mxCell id="56" value="" style="html=1;jettySize=18;whiteSpace=wrap;fontSize=15;strokeOpacity=100;strokeWidth=0.8;rounded=0;startArrow=none;endArrow=ERmandOne;endSize=10;exitX=0.5;exitY=0.992;exitPerimeter=0;entryX=0.364;entryY=-0.008;entryPerimeter=0;lucidId=ZkQh-Eu2DRUF;fontStyle=1" parent="1" source="55" target="17" edge="1">
                    <mxGeometry width="100" height="100" relative="1" as="geometry">
                        <Array as="points"/>
                    </mxGeometry>
                </mxCell>
                <mxCell id="57" value="" style="html=1;jettySize=18;whiteSpace=wrap;fontSize=15;strokeOpacity=100;strokeWidth=0.8;rounded=0;startArrow=none;endArrow=ERoneToMany;endSize=10;exitX=0.5;exitY=0.008;exitPerimeter=0;entryX=0.5;entryY=1.008;entryPerimeter=0;lucidId=5kQhDOaRlSwW;fontStyle=1" parent="1" source="55" target="54" edge="1">
                    <mxGeometry width="100" height="100" relative="1" as="geometry">
                        <Array as="points"/>
                    </mxGeometry>
                </mxCell>
                <mxCell id="58" value="Order_ID" style="ellipse;whiteSpace=wrap;html=1;fontSize=15;fontStyle=1" parent="1" vertex="1">
                    <mxGeometry x="900" y="241" width="120" height="45" as="geometry"/>
                </mxCell>
                <mxCell id="59" value="Amount" style="ellipse;whiteSpace=wrap;html=1;fontSize=15;fontStyle=1" parent="1" vertex="1">
                    <mxGeometry x="900" y="377" width="120" height="45" as="geometry"/>
                </mxCell>
                <mxCell id="60" value="Product_ID" style="ellipse;whiteSpace=wrap;html=1;fontSize=15;fontStyle=1" parent="1" vertex="1">
                    <mxGeometry x="900" y="306.5" width="120" height="45" as="geometry"/>
                </mxCell>
                <mxCell id="70" style="edgeStyle=none;html=1;entryX=0.5;entryY=1;entryDx=0;entryDy=0;shadow=1;endArrow=none;endFill=0;exitX=0.5;exitY=0;exitDx=0;exitDy=0;fontSize=15;fontStyle=1" parent="1" source="3" target="8" edge="1">
                    <mxGeometry relative="1" as="geometry">
                        <mxPoint x="670" y="80" as="sourcePoint"/>
                        <mxPoint x="870" y="34" as="targetPoint"/>
                    </mxGeometry>
                </mxCell>
                <mxCell id="71" style="edgeStyle=none;html=1;entryX=0.5;entryY=1;entryDx=0;entryDy=0;shadow=1;endArrow=none;endFill=0;fontSize=15;fontStyle=1" parent="1" target="11" edge="1">
                    <mxGeometry relative="1" as="geometry">
                        <mxPoint x="700" y="100" as="sourcePoint"/>
                        <mxPoint x="870" y="34" as="targetPoint"/>
                    </mxGeometry>
                </mxCell>
                <mxCell id="72" style="edgeStyle=none;html=1;entryX=0.5;entryY=1;entryDx=0;entryDy=0;shadow=1;endArrow=none;endFill=0;fontSize=15;fontStyle=1" parent="1" target="14" edge="1">
                    <mxGeometry relative="1" as="geometry">
                        <mxPoint x="700" y="100" as="sourcePoint"/>
                        <mxPoint x="700" y="70" as="targetPoint"/>
                    </mxGeometry>
                </mxCell>
                <mxCell id="73" style="edgeStyle=none;html=1;entryX=0.5;entryY=1;entryDx=0;entryDy=0;shadow=1;endArrow=none;endFill=0;fontSize=15;fontStyle=1" parent="1" target="9" edge="1">
                    <mxGeometry relative="1" as="geometry">
                        <mxPoint x="700" y="100" as="sourcePoint"/>
                        <mxPoint x="842" y="69" as="targetPoint"/>
                    </mxGeometry>
                </mxCell>
                <mxCell id="74" style="edgeStyle=none;html=1;entryX=0.5;entryY=1;entryDx=0;entryDy=0;shadow=1;endArrow=none;endFill=0;fontSize=15;fontStyle=1" parent="1" target="10" edge="1">
                    <mxGeometry relative="1" as="geometry">
                        <mxPoint x="700" y="100" as="sourcePoint"/>
                        <mxPoint x="850" y="69" as="targetPoint"/>
                    </mxGeometry>
                </mxCell>
                <mxCell id="75" style="edgeStyle=none;html=1;entryX=0.5;entryY=1;entryDx=0;entryDy=0;shadow=1;endArrow=none;endFill=0;fontSize=15;fontStyle=1" parent="1" target="15" edge="1">
                    <mxGeometry relative="1" as="geometry">
                        <mxPoint x="700" y="100" as="sourcePoint"/>
                        <mxPoint x="990" y="70" as="targetPoint"/>
                    </mxGeometry>
                </mxCell>
                <mxCell id="98" value="&lt;span style=&quot;color: rgb(0, 0, 0); text-decoration-line: underline;&quot;&gt;ID&lt;/span&gt;" style="ellipse;whiteSpace=wrap;html=1;fontSize=15;fontStyle=1" parent="1" vertex="1">
                    <mxGeometry x="-240" y="14" width="120" height="41" as="geometry"/>
                </mxCell>
                <mxCell id="100" value="&lt;span style=&quot;color: rgb(0, 0, 0);&quot;&gt;Name&lt;/span&gt;" style="ellipse;whiteSpace=wrap;html=1;fontSize=15;fontStyle=1" parent="1" vertex="1">
                    <mxGeometry x="-110" y="14" width="120" height="41" as="geometry"/>
                </mxCell>
                <mxCell id="108" style="edgeStyle=orthogonalEdgeStyle;html=1;exitX=1;exitY=0.5;exitDx=0;exitDy=0;endArrow=ERoneToMany;endFill=0;entryX=0.25;entryY=0;entryDx=0;entryDy=0;" parent="1" source="104" target="17" edge="1">
                    <mxGeometry relative="1" as="geometry">
                        <mxPoint x="760" y="650" as="targetPoint"/>
                    </mxGeometry>
                </mxCell>
                <mxCell id="104" value="Create" style="html=1;overflow=block;blockSpacing=1;whiteSpace=wrap;rhombus;fontSize=15;spacing=3.8;strokeOpacity=100;rounded=1;absoluteArcSize=1;arcSize=9;strokeWidth=NaN;lucidId=4GPhMjMSU11j;shadow=1;fontStyle=1" parent="1" vertex="1">
                    <mxGeometry x="45" y="505" width="120" height="90" as="geometry"/>
                </mxCell>
                <mxCell id="114" value="&lt;b&gt;&lt;font style=&quot;font-size: 16px;&quot;&gt;Discount&lt;/font&gt;&lt;/b&gt;" style="shape=ext;double=1;rounded=0;whiteSpace=wrap;html=1;gradientColor=none;strokeColor=default;strokeWidth=1;glass=0;fillColor=default;" parent="1" vertex="1">
                    <mxGeometry x="1150" y="660" width="120" height="80" as="geometry"/>
                </mxCell>
                <mxCell id="116" style="edgeStyle=orthogonalEdgeStyle;html=1;exitX=1;exitY=0.5;exitDx=0;exitDy=0;entryX=0;entryY=0.5;entryDx=0;entryDy=0;endArrow=ERmandOne;endFill=0;" parent="1" source="115" target="114" edge="1">
                    <mxGeometry relative="1" as="geometry"/>
                </mxCell>
                <mxCell id="117" style="edgeStyle=orthogonalEdgeStyle;html=1;exitX=0;exitY=0.5;exitDx=0;exitDy=0;entryX=1;entryY=0.5;entryDx=0;entryDy=0;endArrow=ERzeroToOne;endFill=0;" parent="1" source="115" target="17" edge="1">
                    <mxGeometry relative="1" as="geometry"/>
                </mxCell>
                <mxCell id="115" value="Contain" style="html=1;overflow=block;blockSpacing=1;whiteSpace=wrap;rhombus;fontSize=15;spacing=3.8;strokeOpacity=100;rounded=1;absoluteArcSize=1;arcSize=9;strokeWidth=NaN;lucidId=NxPhzVOWo8Bp;fontStyle=1" parent="1" vertex="1">
                    <mxGeometry x="940" y="655" width="120" height="90" as="geometry"/>
                </mxCell>
                <mxCell id="122" style="edgeStyle=none;html=1;exitX=0.5;exitY=0;exitDx=0;exitDy=0;entryX=0.5;entryY=1;entryDx=0;entryDy=0;endArrow=none;endFill=0;" edge="1" parent="1" source="118" target="17">
                    <mxGeometry relative="1" as="geometry"/>
                </mxCell>
                <mxCell id="118" value="Img" style="ellipse;whiteSpace=wrap;html=1;fontSize=15;fontStyle=1" vertex="1" parent="1">
                    <mxGeometry x="900" y="824" width="120" height="45" as="geometry"/>
                </mxCell>
                <mxCell id="123" style="edgeStyle=none;html=1;exitX=0.5;exitY=0;exitDx=0;exitDy=0;entryX=0.5;entryY=1;entryDx=0;entryDy=0;endArrow=none;endFill=0;" edge="1" parent="1" source="119" target="17">
                    <mxGeometry relative="1" as="geometry"/>
                </mxCell>
                <mxCell id="119" value="Description" style="ellipse;whiteSpace=wrap;html=1;fontSize=15;fontStyle=1" vertex="1" parent="1">
                    <mxGeometry x="1040" y="824" width="120" height="45" as="geometry"/>
                </mxCell>
            </root>
        </mxGraphModel>
    </diagram>
</mxfile>